#!OML:ASF E:/inclinewalkrobotboard/Project1/Captureday1/Session1/subject1.ASF
:FULLY-SPECIFIED
:DEGREES
351
root 0 0 0 -8.0086894557839 -37.15578948356365 0.32380951821301385
lowerback 0.5768602195827519 0.7413835946365179 4.764852273272989
upperback -1.4703536849332637 1.5653439962194589 -0.087320022834952
thorax -1.7840741739126116 0.7990682343829982 -2.807432424056428
lowerneck -10.978029222872138 0.1476486123824876 -5.014121444707954
upperneck -2.310744373899645 0.4529488881307868 3.4381472616717166
head 1.2269616943669623 0.4238402803811403 1.945643303898463
rclavicle -1.0948258105100752E-14 -2.1855527654054956E-16
rhumerus 4.0455947947879 -9.814791605999092 -66.94801118238328
rradius 17.794488767237304
rwrist 56.834553295213766
rhand -6.99687768857404 20.801684538290743
rfingers 7.125019999999922
rthumb 18.863311832048762 -8.880024743683581
lclavicle -1.0459315077703983E-14 2.727083453020466E-15
lhumerus -30.351941808022204 1.3198383666039888 80.78690675704547
lradius 27.236933929492515
lwrist -40.11552573630907
lhand -6.68707196318267 14.79309662393866
lfingers 7.035145017859317
lthumb 18.833565309847575 41.2454813775546
rfemur 8.314279363916182 8.991650366539417 37.56989221367433
rtibia 24.62148124087719
rfoot -23.516841845233444 -5.652159300976592
rtoes 6.495590528980628
lfemur -14.172210406308565 3.1675203361698756 -12.946379751675023
ltibia 69.10705964032353
lfoot 5.2381336157449585 -14.783312416135537
ltoes -16.62615555204941
352
root 0 0 0 -6.702314211095467 -36.48532046335091 -0.05135762506282565
lowerback 1.03079935101462 0.9441601787542245 4.833150940589083
upperback -1.2567504686227928 1.8090959915029545 -0.12104838794576045
thorax -1.8233402084297603 0.9235010975995406 -2.9107809239509326
lowerneck -10.586584788516388 0.11698838167478076 -5.044486853977448
upperneck -2.1126531056354327 0.4179683492118311 3.4658217438157353
head 1.21127916146916 0.3981945385688621 1.9622172141652616
rclavicle -1.0993899720779547E-14 -2.4172421508698335E-16
rhumerus 4.204812801007622 -9.743310565135387 -66.87514837045184
rradius 17.87933348531142
rwrist 56.736741144892946
rhand -7.0189088259863865 20.759941129273813
rfingers 7.125019999999923
rthumb 18.841860874050198 -8.921892279486539
lclavicle -1.063944381714767E-14 2.508893790297955E-15
lhumerus -30.316324961285467 1.3415126063831444 80.7267086295328
lradius 27.026713109568945
lwrist -39.989368459644226
lhand -6.661527905370318 14.865397813200653
lfingers 7.035848456773569
lthumb 18.86110127160798 40.146727733979354
rfemur 8.893842447149307 9.009836658140879 37.61983973578106
rtibia 24.68171259737995
rfoot -23.6462853069491 -5.577292671447301
rtoes 5.967181607521214
lfemur -14.917049883952872 3.174191568209052 -12.733403263670915
ltibia 68.71600328233244
lfoot 4.826058271384506 -14.471670697218322
ltoes -16.987090680758982
353
root 0 0 0 -5.721189139436639 -35.90731591099925 -0.4463245053557739
lowerback 1.4175038845438763 1.1172687609590688 4.848802133478495
upperback -1.0703440826921038 2.0141069635509394 -0.1635333303896081
thorax -1.8554859610645142 1.027736457247034 -2.988456374534638
lowerneck -10.252270031878634 0.03237939062710549 -5.072889307678405
upperneck -1.8526548096389739 0.3088092951896071 3.557407238624639
head 1.2369374056646998 0.3369734643396085 1.9945046990852344
rclavicle -1.1071154251913495E-14 -2.503659792246259E-16
rhumerus 4.318561635844642 -9.689112977875945 -66.81947856364508
rradius 17.94940901703167
rwrist 56.66901745705238
rhand -7.036259261196028 20.737312574009923
rfingers 7.125019999999923
rthumb 18.824982016346485 -8.944836185422794
lclavicle -1.0838619663219703E-14 2.354646903840149E-15
lhumerus -30.31650956161417 1.3750542432455113 80.67588239762964
lradius 26.82557039113852
lwrist -39.885914417138906
lhand -6.616108643687139 14.942987975289258
lfingers 7.036683179695104
lthumb 18.907949994256597 39.17862134944625
rfemur 9.44444255550836 9.021590558841044 37.6552803382122
rtibia 24.75115603781233
rfoot -23.617343318292153 -5.472606364214346
rtoes 5.499767032402556
lfemur -15.42711524374863 3.161034710991439 -12.588287841083558
ltibia 68.38915165542127
lfoot 4.589481096797355 -14.272012593250878
ltoes -17.198581616748665
354
root 0 0 0 -4.980918708941072 -35.43206905398777 -0.8309117244171889
lowerback 1.7461361578737318 1.267143788960925 4.826612820958376
upperback -0.9098119448701776 2.1895279111327692 -0.2114192600414122
thorax -1.8822484611007864 1.1163692345624225 -3.046540065612389
lowerneck -9.974533666970377 -0.08126919850961256 -5.101074976578951
upperneck -1.5538682977718388 0.1588327940316665 3.6920641049264495
head 1.2915160978094327 0.2568855038202611 2.037656626609542
rclavicle -1.116027911040256E-14 -2.4751414523197505E-16
rhumerus 4.377794746500733 -9.640524175007366 -66.78905571429368
rradius 18.006295224292423
rwrist 56.62427396316211
rhand -7.04634544828243 20.728454545943265
rfingers 7.125019999999924
rthumb 18.815158993038363 -8.953906914172652
lclavicle -1.1027977558791507E-14 2.2664690307208344E-15
lhumerus -30.351213488571474 1.3943587729778955 80.65401745166072
lradius 26.6760503226375
lwrist -39.80185764689746
lhand -6.569143727243269 15.018095748610305
lfingers 7.0374910454773945
lthumb 18.956028105878502 38.42347765348721
rfemur 9.917567867260296 9.024952905447195 37.67774840736388
rtibia 24.826812915122744
rfoot -23.474167637380226 -5.354649153256596
rtoes 5.121303221382872
lfemur -15.812704644462762 3.148856213611733 -12.495360975485402
ltibia 68.20154284991636
lfoot 4.4858433691686255 -14.155447376195674
ltoes -17.25182628985965
355
root 0 0 0 -4.393767572581841 -34.98882231522466 -1.1962609320667152
lowerback 2.0483292541649396 1.4027116581649004 4.777739770091511
upperback -0.7643893901010328 2.346299705085587 -0.2645935576571325
thorax -1.9089866472434656 1.1950344162980853 -3.0924951163124748
lowerneck -9.735619004410623 -0.2072710446767192 -5.130320413128366
upperneck -1.2431461311658474 -0.007195402301447551 3.8491512646542394
head 1.360463469641346 0.1697601948572518 2.086678098538022
rclavicle -1.1247169099428522E-14 -2.3894191958601033E-16
rhumerus 4.3827408143044035 -9.586357984462632 -66.78888641260983
rradius 18.054149484060204
rwrist 56.59484910956721
rhand -7.047381651728616 20.728730431681555
rfingers 7.125019999999924
rthumb 18.814131627749145 -8.953493268964205
lclavicle -1.1201517310747093E-14 2.2334180959406763E-15
lhumerus -30.414741962560804 1.3840715822329486 80.66872980378058
lradius 26.602512256954782
lwrist -39.724794800148686
lhand -6.531416865980105 15.086846461821589
lfingers 7.0382215395654635
lthumb 18.99490667103723 37.907290703972265
rfemur 10.277501119057991 9.017839995371911 37.68739367662633
rtibia 24.909507966831608
rfoot -23.25490084029787 -5.236748329508369
rtoes 4.8470003275725215
lfemur -16.16151007442174 3.1468270396641707 -12.435854131969514
ltibia 68.16677557262385
lfoot 4.475606646153734 -14.090609731353872
ltoes -17.155843667459656
356
root 0 0 0 -3.8871239565894973 -34.47757692731529 -1.5541634076331858
lowerback 2.3570606853835816 1.5330022560546004 4.7083261369454865
upperback -0.6206651868578468 2.495093594009053 -0.3242016240137841
thorax -1.9400379686846085 1.2692427059020517 -3.1322806881643803
lowerneck -9.510825146875634 -0.34119737966974206 -5.161470173001958
upperneck -0.9292007026648381 -0.18129165341139686 4.0180960419496845
head 1.4357305915168848 0.07894906479089636 2.1389499179369675
rclavicle -1.1324193562465501E-14 -2.287252438829559E-16
rhumerus 4.340900108478391 -9.518565683195805 -66.81948264305753
rradius 18.097183488139706
rwrist 56.574708632069004
rhand -7.039232555648914 20.7344078807707
rfingers 7.125019999999924
rthumb 18.822039563594604 -8.94720122371691
lclavicle -1.1361848344524924E-14 2.2415649124676965E-15
lhumerus -30.501418568891424 1.3397909749980137 80.71892720175764
lradius 26.61269283707429
lwrist -39.64092823432027
lhand -6.504786015030509 15.15000852512164
lfingers 7.038893644244494
lthumb 19.022923960632184 37.60625094728794
rfemur 10.502522155657818 8.999222119867298 37.683478745708804
rtibia 25.000154471466605
rfoot -22.990295182176528 -5.129356743163702
rtoes 4.682143957549341
lfemur -16.54027281377859 3.1569800367930423 -12.390827798591916
ltibia 68.26779443944768
lfoot 4.526264563415326 -14.047947606430636
ltoes -16.925252001616414
